<?xml version="1.0" encoding="UTF-8" standalone="no"?>
<svg width="452" height="502" viewBox="-190 -210 450 500" xmlns="http://www.w3.org/2000/svg" xmlns:svg="http://www.w3.org/2000/svg" style="border: 1px none silver" stroke-linecap="round">
<style>
	.connection { stroke-width : 2px ; stroke : blue ; fill : none ; }
	.repetetion { stroke-width : 3px ; stroke : black ; fill : none ; stroke-dasharray : 1 8 ; }
	circle.connection { stroke-width : 2px ; stroke : blue ; fill : blue ; }
	g.textbox rect { fill : white ; stroke : none }
	rect { stroke : black ; stroke-width : 2px ; fill : none }
	text { text-anchor : middle ; dominant-baseline : central ; font-size : 18px ; }
</style>

<g transform="translate(-100, -160)">
	<g transform="translate(0, 0)">
		<rect x="-70" y="-30" width="140" height="60" />
		<text xml:space="preserve" x="0" y="0">Solar Panel</text>
		<line class="connection" x1="70" x2="100"></line>
		<line class="repetetion" y1="40" y2="80" />
		</g>
	<g transform="translate(170, 0)">
		<rect x="-70" y="-30" width="140" height="60" />
		<text xml:space="preserve" x="0" y="-11">MPPT</text>
		<text xml:space="preserve" x="0" y="11">Micro Inverter</text>
		<path class="connection" d="M 70 0 h 30 v 220" />
		<g class="textbox" transform="translate(100,170) rotate(270)">
			<rect x="-20" y="-20" width="40" height="40" />
			<text>L1B</text>
			</g>
		<line class="repetetion" y1="40" y2="80" />
		</g>
	</g>
<g transform="translate(-100, -40)">
	<g transform="translate(0, 0)">
		<rect x="-70" y="-30" width="140" height="60" />
		<text xml:space="preserve" x="0" y="0">Solar Panel</text>
		<line class="connection" x1="70" x2="100"></line>
		</g>
	<g transform="translate(170, 0)">
		<rect x="-70" y="-30" width="140" height="60" />
		<text xml:space="preserve" x="0" y="-11">MPPT</text>
		<text xml:space="preserve" x="0" y="11">Micro Inverter</text>
		<line class="connection" x1="70" x2="100" />
		<circle class="connection" cx="100" r="5" />
		</g>
	</g>
<g transform="translate(0, 105)">
	<g transform="translate(-120,0)">
		<text xml:space="preserve" x="0" y="0">Utility Grid</text>
		<line class="connection" x1="50" x2="143" />
		</g>"
	<g id="battery-inverter" transform="translate(170, 0)" fill="none">
		<rect x="-70" y="-45" width="140" height="90" />
		<g fill="black">
			<text xml:space="preserve" x="0" y="-11">Battery</text>
			<text xml:space="preserve" x="0" y="11">Inverter</text>
			</g>
		<line class="connection" x1="-120" x2="-70"></line>
		<path d="M -160 0 v 30 h 90" stroke-width="1.3" stroke="blue" />
		<circle class="connection" cx="-160" r="3" />
		<g class="textbox" transform="translate(-120,29)">
			<rect x="-25" y="-20" width="50" height="40" />
			<text fill="blue">Sense</text>
			</g>
		</g>
	<g class="textbox" transform="translate(-30,0)">
		<rect x="-20" y="-20" width="40" height="40" />
		<text>L1A</text>
		</g>
	<g id="grid-breaker" transform="translate(40,0)" stroke-width="2" stroke="black" fill="none">
		<line x1="-12" x2="10" y2="-10" stroke-width="3" />
		<g fill="white">
			<circle cx="-12" r="5" />	
			<circle cx="12" r="5" />
			</g>
		<path d="M 0 -10 v -15 h 60" stroke-width="1.3" stroke-dasharray="2 4" />
		</g>
	<g transform="translate(170, 115)">
		<rect x="-70" y="-30" width="140" height="60" />
		<text xml:space="preserve" x="0" y="0">Battery</text>
		<line class="connection" y1="-30" y2="-70"></line>
		</g>
	</g>
</svg>
