<?xml version="1.0" encoding="UTF-8" standalone="no"?>
<svg width="532" height="672" viewBox="-90 -220 530 670" xmlns="http://www.w3.org/2000/svg" xmlns:svg="http://www.w3.org/2000/svg" style="border: 1px none silver" stroke-linecap="round" stroke-width="1" stroke="black" fill="white">
<style>
	.ac { stroke : blue }
	.ac.public { stroke : green }
	.connector { stroke-width : 2px ; fill : none ; }
	.control { stroke : #888 }
	.data { stroke : #888 ; stroke-width : 1px }
	.dc { stroke : red }
	.hidden { display : none }
	.monitoring { stroke : #C44 ; stroke-width : 1px }
	.outlined { stroke : #eee ; paint-order : stroke fill ; stroke-width : 5px }
	.private-grid { stroke : green }
	.public-grid { stroke : blue }
	.left-aligned { text-anchor : start }
	
	g.textbox rect { stroke : none }
	circle.connector.dc { fill : red }
	circle.data { stroke : #888 ; fill : #888 }
	line { fill : none }
	g path { fill : none }
	text { text-anchor : middle ; dominant-baseline : middle ; fill : black ; stroke : none  }
	</style>
<defs>
    <marker id="arrow" viewBox="-10 -5 10 10" markerWidth="10" markerHeight="10" orient="auto-start-reverse" >
		<path d="M 0 0 L -9 -3  v 6 c" fill="context-stroke" stroke="context-stroke" />
		</marker>
	<marker id="dot" viewBox="-5 -5 10 10" markerWidth="10" markerHeight="10" markerUnits="userSpaceOnUse">
		<circle r="3	" stroke="none" fill="context-stroke" />
		</marker>
	<marker id="circle" viewBox="-7 -7 14 14" refX="-7" markerWidth="14" markerHeight="14" markerUnits="userSpaceOnUse" >
		<circle r="6" fill="none" stroke="context-stroke" />
		</marker>
	</defs>

<g id="panels" transform="translate(50,-180)">
	<rect x="-30" y="-30" width="60" height="60" />
	<text y="-10">PV</text>
	<text y="10">Panels</text>
	</g>
<rect id="inverter-container" x="-80" y="-80" width="460" height="320" fill="#eee"/>
<text transform="translate(-40,50) rotate(270)">Hybrid Inverter</text>
<g id="mppt" transform="translate(50,-25)">
	<path class="connector dc" d="M 0 -35 v -90" />
	<text class="outlined" style="stroke: white" y="-95">DC</text>
	<text class="outlined" style="stroke: white" y="-80">unregulated</text>
	<rect x="-40" y="-35" width="80" height="70" />
	<text y="-20">MPPT</text>
	<text>DC-DC</text>
	<text y="18">Converter</text>
	</g>
<g id="controller" transform="translate(260,40)" >
	<rect x="-40" y="-40" width="90" height="80" />
	<text>Controller</text>
	<g transform="translate(0,-20)">
		<path class="control" d="M -20 -20 v -30 h -150" marker-end="url(#arrow)" />
		<text class="outlined" x="-100" y="-50">output current</text>
		</g>
	<g>
		<path d="M -40 -10 h -170" stroke="red" marker-start="url(#arrow)" />	
		<text class="outlined" x="-120" y="-10">battery voltage</text>
		<circle class="connector dc" cx="-210" cy="-10" r="2" />
		</g>
	<g>
		<path class="control" d="M -40 10 h -110 v 90" marker-end="url(#arrow)" />
		<text class="outlined" x="-150" y="45">direction</text>
		</g>
	<g>
		<path class="control" d="M -40 20 h -70 v 79" marker-end="url(#arrow)" />
		<text class="outlined" x="-110" y="65">current</text>
		</g>
	<g id="public-grid-current-sense" transform="translate(83,-180)">
		<path class="ac public" d="M 0 0 h -83 v 140" marker-start="url(#circle)" marker-end="url(#arrow)" />
		<text class="outlined" x="-40" y="-5">current</text>
		<text class="outlined" x="-40" y="10">sense</text>
		</g>
	
	</g>
	
<g id="bidi-inverter" transform="translate(130,180)">
	<rect x="-50" y="-40" width="100" height="80" />
	<text y="-20">Bidirectional</text>
	<text y="0">DC-AC</text>
	<text y="20">Converter</text>
	<path class="connector public-grid" d="M 50 0 h 170" marker-end="url(#dot)"/>
	<text x="75" y="0" class="outlined" style="stroke-width:7px">AC</text>
	<path class="connector dc" d="M -50 0 h -30" />
	<circle class="connector dc" cx="-80" r="3" />
	<g id="public-grid" transform="translate(220,-380)">
		<path class="connector ac public" d="M 0 0 v 230" />
		<path class="connector ac public" d="M 0 100 h 80 v 500" marker-start="url(#dot)" />
		<text class="outlined" style="stroke-width: 8px ; stroke:white">Public</text>
		<text class="outlined" y="15" style="stroke-width: 8px ; stroke:white">Grid</text>
		</g>
	<g id="public-grid-voltage-sense" transform="translate(220,-210)">
		<path class="ac" d="M 0 0 h -70 v30" marker-start="url(#dot)" marker-end="url(#arrow)" />
		<text x="-30" class="outlined">grid</text>
		<text x="-30" y="16" class="outlined">sense</text>
		</g>
	<g id="private-grid-current-sense" transform="translate(160,30)">
		<path class="connector ac" d="M 60 -160 v 350" />
		<path class="ac" d="M 53 0 h -43 v -130" marker-start="url(#circle)" marker-end="url(#arrow)" />
		<text class="outlined left-aligned" y="-80">current</text>
		<text class="outlined left-aligned" y="-60">sense</text>
		</g>
	<g id="circuit-breaker" transform="translate(220,-140) rotate(270)" >
		<circle cx="10" r="4" />
		<line x1="-10" x2="9" y2="-10" stroke-width="2" />
		<circle cx="-10" r="4" />
		</g>
	<path d="M 180 -140 h 35" stroke-dasharray="2 2"/>
	</g>

<g transform="translate(350,330)">
	<text class="outlined" style="stroke-width: 8px ; stroke:white">Private</text>
	<text class="outlined" y="15" style="stroke-width: 8px ; stroke:white">Grid</text>
	</g>

<rect id="battery-container" x="-80" y="260" width="380" height="180" fill="#eee"/>
<text x="180" y="390">Battery/BMS Unit</text>
<g id="bms" transform="translate(50,310)">
	<rect x="-40" y="-30" width="80" height="60" />
	<text>BMS</text>
	<path class="connector dc" d="M 0 -30 v -270" />
	<g transform="translate(0,-180)">
		<text class="outlined" y="-10">DC</text>
		<text class="outlined" y="10">48 V</text>
		</g>
	<path class="monitoring" d="M -40 0 h -40 v 70 h 40 m -20 6 l 6 -12" />
	<text x="-60" y="83" style="fill:red">n</text>
	<text class="outlined" x="-80" y="29">cell</text>
	<text class="outlined" x="-80" y="45">taps</text>
	<path class="data" d="M-40 -20 h -70 v 110 h 70 m -50 6 l 6 -12" marker-start="url(#arrow)"/>
	<text class="outlined" x="-110" y="37">ϑ</text>
	<text x="-90" y="103">m</text>
	<path class="data" d="M 40 -20 h 150 v -210" marker-end="url(#arrow)" />
	<text class="outlined" x="110" y="-20">battery state</text>
	<path class="data" d="M 40 0 h 170 v -230" marker-end="url(#arrow)" />
	<text class="outlined" x="130">battery current</text>
	<path class="data" d="M 40 20 h 190 v -250" marker-start="url(#arrow)" />	
	<text class="outlined" x="140" y="20">precharge</text>
	</g>
<g id="battery" transform="translate(50,390)">
	<rect x="-40" y="-30" width="80" height="60" />
	<text>Battery</text>
	<path class="connector dc" d="M 0 -30 v -20" />
	<path class="hidden connector dc" d="M 0 -40 h 160 v -85" />
	</g>
</svg>
