<?xml version="1.0" encoding="UTF-8" standalone="no"?>
<svg width="412" height="182" viewBox="-140 -90 410 180" xmlns="http://www.w3.org/2000/svg" xmlns:svg="http://www.w3.org/2000/svg" style="border: 1px none silver" stroke-linecap="round" stroke-width="1" stroke="black" fill="white">
<style>
	.connector { stroke-width : 2px ; stroke : blue ; fill : none ; }
	.dc { stroke : red }
	.public-grid { stroke : blue }
	.private-grid { stroke : green }
	.hidden { display : none }
	g.textbox rect { stroke : none }
	.textbox.left-aligned > text { text-anchor : start }
	circle.connector { fill : blue ; }
	line { fill : none }
	path { fill : none }
	text { text-anchor : middle ; dominant-baseline : central ; fill : black ; stroke : none  }
	</style>

<g id="inverter-outline" transform="translate(50,0)">
	<rect x="-100" y="-80" width="200" height="160" fill="#e0e0e0"/>
	</g>
<g id="panel-1" transform="translate(-100,-50)">
	<rect x="-30" y="-20" width="60" height="40" />
	<text>Panels</text>
	<path class="connector dc" d="M 30 0 h 40" /> 
	</g>
<g id="panel-2" transform="translate(-100,0)">
	<rect x="-30" y="-20" width="60" height="40" />
	<text>Panels</text>
	<path class="connector dc" d="M 30 0 h 40" /> 
	</g>
<g id="panel-3" transform="translate(-100,50)">
	<rect x="-30" y="-20" width="60" height="40" />
	<text>Panels</text>
	<path class="connector dc" d="M 30 0 h 40" /> 
	</g>
<g id="mppt=1" transform="translate(0,-50)">
	<rect x="-30" y="-20" width="60" height="40" />
	<text>MPPT</text>
	<path class="connector dc" d="M 30 0 h 20 v 50" /> 
	</g>
<g id="mppt-2" transform="translate(0,0)">
	<rect x="-30" y="-20" width="60" height="40" />
	<text>MPPT</text>
	<path class="connector dc" d="M 30 0 h 40" /> 
	</g>
<g id="mppt-3" transform="translate(0,50)">
	<rect x="-30" y="-20" width="60" height="40" />
	<text>MPPT</text>
	<path class="connector dc" d="M 30 0 h 20 v-50" /> 
	</g>
<g id="inverter" transform="translate(100,0)">
	<g transform="translate(0,0)">
		<rect x="-30" y="-30" width="60" height="60" />
		<text>Inverter</text>
		</g>
	<path class="connector public-grid" d="M 30 -15 h 50" />
	<path class="connector private-grid" d="M 30 15 h 50" />
	<g class="textbox left-aligned" transform="translate(85,-15)">
		<text>Public Grid</text>
		</g>
	<g class="textbox left-aligned" transform="translate(85,15)">
		<text>Private Grid</text>
		</g>
	</g>
</svg>
