<?xml version="1.0" encoding="UTF-8" standalone="no"?>
<svg width="342" height="302" viewBox="-70 -50 340 300" xmlns="http://www.w3.org/2000/svg" xmlns:svg="http://www.w3.org/2000/svg" style="border: 1px none silver" stroke-linecap="round">
<style>
	.connection { stroke-width : 2px ; stroke : blue ; fill : none ; }
	.repetetion { stroke-width : 3px ; stroke : black ; fill : none ; stroke-dasharray : 1 8 ; }
	circle.connection { stroke-width : 2px ; stroke : blue ; fill : blue ; }
	g.textbox rect { fill : white ; stroke : none }
	rect { stroke : black ; stroke-width : 2px ; fill : none }
	text { text-anchor : middle ; dominant-baseline : central ; font-size : 18px ; }
</style>

<g transform="translate(0,0)">	
	<g transform="translate(-20, 0)">
		<rect x="-50" y="-30" width="100" height="60" />
		<text xml:space="preserve" x="0" y="0">Panel</text>
		</g>
	<line class="connection" x1="30" x2="45"></line>
	<line class="connection" x1="50" x2="80" stroke-dasharray="1 6"></line>
	<line class="connection" x1="85" x2="100"></line>
	<g transform="translate(150, 0)">
		<rect x="-50" y="-30" width="100" height="60" />
		<text xml:space="preserve" x="0" y="0">Panel</text>
		<line class="connection" x1="50" x2="100"></line>
		</g>
	</g>
<g transform="translate(-20,40)">
	<line class="repetetion" y2="25" />
	<line class="repetetion" x1="170" x2="170"  y2="25" />
	</g>
<g transform="translate(0,100)">	
	<g transform="translate(-20, 0)">
		<rect x="-50" y="-30" width="100" height="60" />
		<text xml:space="preserve" x="0" y="0">Panel</text>
		</g>
	<line class="connection" x1="30" x2="45"></line>
	<line class="connection" x1="50" x2="80" stroke-dasharray="1 6"></line>
	<line class="connection" x1="85" x2="100"></line>
	<g transform="translate(150, 0)">
		<rect x="-50" y="-30" width="100" height="60" />
		<text xml:space="preserve" x="0" y="0">Panel</text>
		<line class="connection" x1="50" x2="100"></line>
		</g>
	</g>
<g transform="translate(250,0)">
	<line class="connection" y2="200"></line>
	<circle class="connection" cy="100" r="5" />
	<g class="textbox" transform="translate(0, 150) rotate(270)">
		<rect x="-30" y="-10" width="60" height="20" />
		<text y="-1">String</text>
		</g>
	</g>
<g transform="translate(0,200)">	
	<g transform="translate(150, 0)">
		<rect x="-50" y="-30" width="100" height="60" />
		<text xml:space="preserve" x="0" y="-10">String</text>
		<text xml:space="preserve" x="0" y="10">Inverter</text>
		</g>
	<line class="connection" x1="200" x2="250"></line>
	<line class="connection" x1="100" x2="-50"></line>
	<g class="textbox">
		<rect x="-20" y="-10" width="40" height="20" />
		<text>L1B</text>
		</g>
	<text x="70" y="-15">AC</text>
	<text x="225" y="15">DC</text>
	</g>

</svg>
