<?xml version="1.0" encoding="UTF-8" standalone="no"?>
<svg width="502" height="212" viewBox="-20 -70 500 210" xmlns="http://www.w3.org/2000/svg" xmlns:svg="http://www.w3.org/2000/svg" style="border: 1px none silver" stroke-linecap="round" stroke-width="1" stroke="black" fill="white">
<style>
	.connector { stroke-width : 2px ; stroke : blue ; fill : none ; }
	.dc { stroke : red }
	.hidden { display : none }
	circle.connector { fill : blue ; }
	g.textbox rect { stroke : none }
	line { fill : none }
	path { fill : none }
	text { text-anchor : middle ; dominant-baseline : central ; fill : black ; stroke : none  }
	</style>
<g transform="translate(25, 0)">
	<line class="connector dc" x1="-35" x2="35" />
	<g class="textbox">
		<rect x="-15" y="-10" width="30" height="20" />
		<text>DC</text>
		</g>
	</g>
<g transform="translate(90,0)" >
	<rect x="-30" y="-60" width="60" height="90" />
	<text>Inverter</text>
	</g>
<g transform="translate(180,0)" >
	<rect x="-60" y="-60" width="160" height="90" />
	<line class="connector" x1="-60" x2="40" />
	<g class="textbox" transform="translate(-30,0)">
		<rect x="-15" y="-10" width="30" height="20" />
		<text>AC</text>
		</g>
	<line x1="40" x2="60" y2="-10" stroke-width="2" />
	<circle cx="40" r="4" />
	<line class="connector" x1="60" x2="200"  />
	<circle cx="60" r="4" />
	<path d="M 50 -5 v -15 h -110" />
	<path d="M 80 0 v -40 h -140" stroke="blue" />
	<circle class="connector" cx="80" r="2" />
	<g class="textbox" transform="translate(10,-42)">
		<rect x="-60" y="-10" width="120" height="20" />
		<text style="fill:blue">public grid sense</text>
		</g>
	<circle class="connector" r="3" />
	<path d="M 0 0 v 110 h 290" class="connector" />
	<g transform="translate(265,110)" >
		<text y="-10">Local</text>
		<text y="10">Grid B</text>
		</g>
	</g>
<line x1="400" x2="470" class="connector"/>
<g transform="translate(370,0)" >
	<rect x="-30" y="-30" width="60" height="60" />
	<text>Meter</text>
	</g>
<g transform="translate(450,0)" >
	<text y="-10">Public</text>
	<text y="10">Grid</text>
	</g>

<g transform="translate(0,0)">
	<circle class="connector" cx="310" r="3" />
	<path d="M 310 0 v 60 h 160" class="connector" />
	<text x="445" y="50">Local</text>
	<text x="445" y="70">Grid A</text>
	</g>
	
<g class="hidden">
	<g transform="translate(360,0)">
		<rect x="-30" y="-25" width="60" height="50" />
		<text y="-10">Bidir.</text>
		<text y="10">Meter</text>
		</g>
	</g>
</svg>
