<?xml version="1.0" encoding="UTF-8" standalone="no"?>
<svg width="492" height="102" viewBox="-20 -50 490 100" xmlns="http://www.w3.org/2000/svg" xmlns:svg="http://www.w3.org/2000/svg" style="border: 1px none silver" stroke-linecap="round" stroke-width="1" stroke="black" fill="white">
<style>
	.connector { stroke-width : 2px ; stroke : blue ; fill : none ; }
	.dc { stroke : red }
	.hidden { display : none }
	circle.connector { fill : blue ; }
	g.textbox rect { stroke : none }
	line { fill : none }
	path { fill : none }
	text { text-anchor : middle ; dominant-baseline : central ; fill : black ; stroke : none  }
</style>

<g transform="translate(20,0)" >
	<rect x="-30" y="-40" width="60" height="80" />
	<text y="-10">Panel</text>
	<text y="10">Strings</text>
	</g>
<g transform="translate(85, 0)">
	<line class="connector dc" x1="-35" x2="35" />
	<g class="textbox">
		<rect x="-15" y="-10" width="30" height="20" />
		<text>DC</text>
		</g>
	</g>
<g transform="translate(150,0)" >
	<rect x="-30" y="-40" width="60" height="80" />
	<text>Inverter</text>
	<rect x="30" y="-40" width="90" height="80" />
	<line x1="60" x2="80" y2="-10" stroke-width="2" />
	<line class="connector" x1="30" x2="60" />
	<circle cx="60" r="4" />
	<line class="connector" x1="80" x2="190"  />
	<circle cx="80" r="4" />
	<path d="M 70 -5 v -15 h -40" />
	<path d="M 105 0 v 20 h -75" stroke="blue" />
	<circle class="connector" cx="105" r="2" />
	<g class="textbox" transform="translate(70,18)">
		<rect x="-20" y="-10" width="40" height="20" />
		<text style="fill:blue">sense</text>
		</g>
	<g class="textbox" transform="translate(150,0)">
		<rect x="-15" y="-10" width="30" height="20" />
		<text>AC</text>
		</g>
	</g><g transform="translate(360,0)">
	<g>
		<rect x="-30" y="-25" width="60" height="50" />
		<text y="-10">Bidir.</text>
		<text y="10">Meter</text>
		<line class="connector" x1="30" x2="90" stroke="blue" stroke-width="2" />
		</g>
	<g transform="translate(70,0)" >
		<text y="-10">Public</text>
		<text y="10">Grid</text>
		</g>
	</g>

<g class="hidden">
</g>
	
</svg>
